<mxfile host="app.diagrams.net" modified="2022-11-30T19:13:03.810Z" agent="5.0 (Macintosh; Intel Mac OS X 10_15_7) AppleWebKit/537.36 (KHTML, like Gecko) Chrome/107.0.0.0 Safari/537.36" version="20.6.0" etag="f46Qo-1YqHjTiTsenmVx" type="github">
  <diagram id="62L7udKTN0seH_R6N3dy" name="PÃ¡gina-1">
    <mxGraphModel dx="976" dy="579" grid="1" gridSize="10" guides="1" tooltips="1" connect="1" arrows="1" fold="1" page="1" pageScale="1" pageWidth="827" pageHeight="1169" math="0" shadow="0">
      <root>
        <mxCell id="0" />
        <mxCell id="1" parent="0" />
        <mxCell id="DiYAFlhnTvCMc2Pwmvz9-1" value="mercadona/api" style="strokeWidth=2;html=1;shape=mxgraph.flowchart.start_2;whiteSpace=wrap;fillColor=#d5e8d4;strokeColor=#82b366;" vertex="1" parent="1">
          <mxGeometry x="130" y="210" width="20" height="20" as="geometry" />
        </mxCell>
        <mxCell id="DiYAFlhnTvCMc2Pwmvz9-105" value="" style="edgeStyle=orthogonalEdgeStyle;rounded=0;orthogonalLoop=1;jettySize=auto;html=1;endArrow=none;endFill=0;" edge="1" parent="1" source="DiYAFlhnTvCMc2Pwmvz9-2" target="DiYAFlhnTvCMc2Pwmvz9-104">
          <mxGeometry relative="1" as="geometry" />
        </mxCell>
        <mxCell id="DiYAFlhnTvCMc2Pwmvz9-2" value="/categories" style="strokeWidth=2;html=1;shape=mxgraph.flowchart.start_2;whiteSpace=wrap;fillColor=#ffe6cc;strokeColor=#d79b00;" vertex="1" parent="1">
          <mxGeometry x="230" y="210" width="20" height="20" as="geometry" />
        </mxCell>
        <mxCell id="DiYAFlhnTvCMc2Pwmvz9-10" value="" style="edgeStyle=orthogonalEdgeStyle;rounded=0;orthogonalLoop=1;jettySize=auto;html=1;endArrow=none;endFill=0;" edge="1" parent="1" source="DiYAFlhnTvCMc2Pwmvz9-3" target="DiYAFlhnTvCMc2Pwmvz9-9">
          <mxGeometry relative="1" as="geometry" />
        </mxCell>
        <mxCell id="DiYAFlhnTvCMc2Pwmvz9-64" value="" style="edgeStyle=orthogonalEdgeStyle;rounded=0;orthogonalLoop=1;jettySize=auto;html=1;endArrow=none;endFill=0;" edge="1" parent="1" source="DiYAFlhnTvCMc2Pwmvz9-3" target="DiYAFlhnTvCMc2Pwmvz9-59">
          <mxGeometry relative="1" as="geometry" />
        </mxCell>
        <mxCell id="DiYAFlhnTvCMc2Pwmvz9-3" value="response" style="strokeWidth=2;html=1;shape=mxgraph.flowchart.start_2;whiteSpace=wrap;fillColor=#dae8fc;strokeColor=#6c8ebf;" vertex="1" parent="1">
          <mxGeometry x="370" y="210" width="20" height="20" as="geometry" />
        </mxCell>
        <mxCell id="DiYAFlhnTvCMc2Pwmvz9-4" value="" style="endArrow=none;html=1;rounded=0;exitX=1;exitY=0.5;exitDx=0;exitDy=0;exitPerimeter=0;entryX=0;entryY=0.5;entryDx=0;entryDy=0;entryPerimeter=0;" edge="1" parent="1" source="DiYAFlhnTvCMc2Pwmvz9-1" target="DiYAFlhnTvCMc2Pwmvz9-2">
          <mxGeometry width="50" height="50" relative="1" as="geometry">
            <mxPoint x="390" y="330" as="sourcePoint" />
            <mxPoint x="220" y="210" as="targetPoint" />
          </mxGeometry>
        </mxCell>
        <mxCell id="DiYAFlhnTvCMc2Pwmvz9-13" value="" style="edgeStyle=orthogonalEdgeStyle;rounded=0;orthogonalLoop=1;jettySize=auto;html=1;endArrow=none;endFill=0;" edge="1" parent="1" source="DiYAFlhnTvCMc2Pwmvz9-6" target="DiYAFlhnTvCMc2Pwmvz9-12">
          <mxGeometry relative="1" as="geometry" />
        </mxCell>
        <mxCell id="DiYAFlhnTvCMc2Pwmvz9-6" value="404" style="strokeWidth=2;html=1;shape=mxgraph.flowchart.start_2;whiteSpace=wrap;fillColor=#dae8fc;strokeColor=#6c8ebf;" vertex="1" parent="1">
          <mxGeometry x="370" y="310" width="20" height="20" as="geometry" />
        </mxCell>
        <mxCell id="DiYAFlhnTvCMc2Pwmvz9-11" value="" style="edgeStyle=orthogonalEdgeStyle;rounded=0;orthogonalLoop=1;jettySize=auto;html=1;endArrow=none;endFill=0;" edge="1" parent="1" source="DiYAFlhnTvCMc2Pwmvz9-9" target="DiYAFlhnTvCMc2Pwmvz9-6">
          <mxGeometry relative="1" as="geometry" />
        </mxCell>
        <mxCell id="DiYAFlhnTvCMc2Pwmvz9-15" value="" style="edgeStyle=orthogonalEdgeStyle;rounded=0;orthogonalLoop=1;jettySize=auto;html=1;endArrow=none;endFill=0;" edge="1" parent="1" source="DiYAFlhnTvCMc2Pwmvz9-9" target="DiYAFlhnTvCMc2Pwmvz9-14">
          <mxGeometry relative="1" as="geometry" />
        </mxCell>
        <mxCell id="DiYAFlhnTvCMc2Pwmvz9-9" value="200" style="strokeWidth=2;html=1;shape=mxgraph.flowchart.start_2;whiteSpace=wrap;fillColor=#d5e8d4;strokeColor=#82b366;" vertex="1" parent="1">
          <mxGeometry x="370" y="260" width="20" height="20" as="geometry" />
        </mxCell>
        <mxCell id="DiYAFlhnTvCMc2Pwmvz9-12" value="500" style="strokeWidth=2;html=1;shape=mxgraph.flowchart.start_2;whiteSpace=wrap;fillColor=#f8cecc;strokeColor=#b85450;" vertex="1" parent="1">
          <mxGeometry x="370" y="360" width="20" height="20" as="geometry" />
        </mxCell>
        <mxCell id="DiYAFlhnTvCMc2Pwmvz9-20" value="" style="edgeStyle=orthogonalEdgeStyle;rounded=0;orthogonalLoop=1;jettySize=auto;html=1;endArrow=none;endFill=0;" edge="1" parent="1" source="DiYAFlhnTvCMc2Pwmvz9-14" target="DiYAFlhnTvCMc2Pwmvz9-17">
          <mxGeometry relative="1" as="geometry" />
        </mxCell>
        <mxCell id="DiYAFlhnTvCMc2Pwmvz9-14" value="Categories" style="strokeWidth=2;html=1;shape=mxgraph.flowchart.start_2;whiteSpace=wrap;fillColor=#d0cee2;strokeColor=#56517e;" vertex="1" parent="1">
          <mxGeometry x="450" y="260" width="20" height="20" as="geometry" />
        </mxCell>
        <mxCell id="DiYAFlhnTvCMc2Pwmvz9-22" style="edgeStyle=orthogonalEdgeStyle;rounded=0;orthogonalLoop=1;jettySize=auto;html=1;exitX=0.5;exitY=1;exitDx=0;exitDy=0;exitPerimeter=0;entryX=0.5;entryY=0;entryDx=0;entryDy=0;entryPerimeter=0;endArrow=none;endFill=0;" edge="1" parent="1" source="DiYAFlhnTvCMc2Pwmvz9-17" target="DiYAFlhnTvCMc2Pwmvz9-21">
          <mxGeometry relative="1" as="geometry" />
        </mxCell>
        <mxCell id="DiYAFlhnTvCMc2Pwmvz9-24" value="" style="edgeStyle=orthogonalEdgeStyle;rounded=0;orthogonalLoop=1;jettySize=auto;html=1;endArrow=none;endFill=0;" edge="1" parent="1" source="DiYAFlhnTvCMc2Pwmvz9-17" target="DiYAFlhnTvCMc2Pwmvz9-23">
          <mxGeometry relative="1" as="geometry" />
        </mxCell>
        <mxCell id="DiYAFlhnTvCMc2Pwmvz9-17" value="category" style="strokeWidth=2;html=1;shape=mxgraph.flowchart.start_2;whiteSpace=wrap;fillColor=#b0e3e6;strokeColor=#0e8088;" vertex="1" parent="1">
          <mxGeometry x="450" y="300" width="20" height="20" as="geometry" />
        </mxCell>
        <mxCell id="DiYAFlhnTvCMc2Pwmvz9-58" value="" style="edgeStyle=orthogonalEdgeStyle;rounded=0;orthogonalLoop=1;jettySize=auto;html=1;endArrow=none;endFill=0;" edge="1" parent="1" source="DiYAFlhnTvCMc2Pwmvz9-21" target="DiYAFlhnTvCMc2Pwmvz9-48">
          <mxGeometry relative="1" as="geometry" />
        </mxCell>
        <mxCell id="DiYAFlhnTvCMc2Pwmvz9-21" value="category" style="strokeWidth=2;html=1;shape=mxgraph.flowchart.start_2;whiteSpace=wrap;fillColor=#b0e3e6;strokeColor=#0e8088;" vertex="1" parent="1">
          <mxGeometry x="450" y="530" width="20" height="20" as="geometry" />
        </mxCell>
        <mxCell id="DiYAFlhnTvCMc2Pwmvz9-26" value="" style="edgeStyle=orthogonalEdgeStyle;rounded=0;orthogonalLoop=1;jettySize=auto;html=1;endArrow=none;endFill=0;fillColor=#fff2cc;strokeColor=#d6b656;" edge="1" parent="1" source="DiYAFlhnTvCMc2Pwmvz9-23" target="DiYAFlhnTvCMc2Pwmvz9-25">
          <mxGeometry relative="1" as="geometry" />
        </mxCell>
        <mxCell id="DiYAFlhnTvCMc2Pwmvz9-69" value="" style="edgeStyle=orthogonalEdgeStyle;rounded=0;orthogonalLoop=1;jettySize=auto;html=1;endArrow=none;endFill=0;" edge="1" parent="1" source="DiYAFlhnTvCMc2Pwmvz9-23" target="DiYAFlhnTvCMc2Pwmvz9-68">
          <mxGeometry relative="1" as="geometry" />
        </mxCell>
        <mxCell id="DiYAFlhnTvCMc2Pwmvz9-23" value="id" style="strokeWidth=2;html=1;shape=mxgraph.flowchart.start_2;whiteSpace=wrap;fillColor=#fff2cc;strokeColor=#d6b656;" vertex="1" parent="1">
          <mxGeometry x="510" y="300" width="20" height="20" as="geometry" />
        </mxCell>
        <mxCell id="DiYAFlhnTvCMc2Pwmvz9-33" value="" style="edgeStyle=orthogonalEdgeStyle;rounded=0;orthogonalLoop=1;jettySize=auto;html=1;endArrow=none;endFill=0;fillColor=#fff2cc;strokeColor=#d6b656;" edge="1" parent="1" source="DiYAFlhnTvCMc2Pwmvz9-25" target="DiYAFlhnTvCMc2Pwmvz9-32">
          <mxGeometry relative="1" as="geometry" />
        </mxCell>
        <mxCell id="DiYAFlhnTvCMc2Pwmvz9-82" style="edgeStyle=orthogonalEdgeStyle;rounded=0;orthogonalLoop=1;jettySize=auto;html=1;exitX=1;exitY=0.5;exitDx=0;exitDy=0;exitPerimeter=0;entryX=0;entryY=0.5;entryDx=0;entryDy=0;entryPerimeter=0;endArrow=none;endFill=0;" edge="1" parent="1" source="DiYAFlhnTvCMc2Pwmvz9-25" target="DiYAFlhnTvCMc2Pwmvz9-74">
          <mxGeometry relative="1" as="geometry" />
        </mxCell>
        <mxCell id="DiYAFlhnTvCMc2Pwmvz9-25" value="name" style="strokeWidth=2;html=1;shape=mxgraph.flowchart.start_2;whiteSpace=wrap;fillColor=#fff2cc;strokeColor=#d6b656;" vertex="1" parent="1">
          <mxGeometry x="510" y="330" width="20" height="20" as="geometry" />
        </mxCell>
        <mxCell id="DiYAFlhnTvCMc2Pwmvz9-35" value="" style="edgeStyle=orthogonalEdgeStyle;rounded=0;orthogonalLoop=1;jettySize=auto;html=1;endArrow=none;endFill=0;fillColor=#fff2cc;strokeColor=#d6b656;" edge="1" parent="1" source="DiYAFlhnTvCMc2Pwmvz9-32" target="DiYAFlhnTvCMc2Pwmvz9-34">
          <mxGeometry relative="1" as="geometry" />
        </mxCell>
        <mxCell id="DiYAFlhnTvCMc2Pwmvz9-83" style="edgeStyle=orthogonalEdgeStyle;rounded=0;orthogonalLoop=1;jettySize=auto;html=1;exitX=1;exitY=0.5;exitDx=0;exitDy=0;exitPerimeter=0;entryX=0;entryY=0.5;entryDx=0;entryDy=0;entryPerimeter=0;endArrow=none;endFill=0;" edge="1" parent="1" source="DiYAFlhnTvCMc2Pwmvz9-32" target="DiYAFlhnTvCMc2Pwmvz9-75">
          <mxGeometry relative="1" as="geometry" />
        </mxCell>
        <mxCell id="DiYAFlhnTvCMc2Pwmvz9-32" value="category_id" style="strokeWidth=2;html=1;shape=mxgraph.flowchart.start_2;whiteSpace=wrap;fillColor=#fff2cc;strokeColor=#d6b656;" vertex="1" parent="1">
          <mxGeometry x="510" y="360" width="20" height="20" as="geometry" />
        </mxCell>
        <mxCell id="DiYAFlhnTvCMc2Pwmvz9-38" value="" style="edgeStyle=orthogonalEdgeStyle;rounded=0;orthogonalLoop=1;jettySize=auto;html=1;endArrow=none;endFill=0;fillColor=#fff2cc;strokeColor=#d6b656;" edge="1" parent="1" source="DiYAFlhnTvCMc2Pwmvz9-34" target="DiYAFlhnTvCMc2Pwmvz9-37">
          <mxGeometry relative="1" as="geometry" />
        </mxCell>
        <mxCell id="DiYAFlhnTvCMc2Pwmvz9-86" style="edgeStyle=orthogonalEdgeStyle;rounded=0;orthogonalLoop=1;jettySize=auto;html=1;exitX=1;exitY=0.5;exitDx=0;exitDy=0;exitPerimeter=0;entryX=0;entryY=0.5;entryDx=0;entryDy=0;entryPerimeter=0;endArrow=none;endFill=0;" edge="1" parent="1" source="DiYAFlhnTvCMc2Pwmvz9-34" target="DiYAFlhnTvCMc2Pwmvz9-76">
          <mxGeometry relative="1" as="geometry" />
        </mxCell>
        <mxCell id="DiYAFlhnTvCMc2Pwmvz9-34" value="is_parent" style="strokeWidth=2;html=1;shape=mxgraph.flowchart.start_2;whiteSpace=wrap;fillColor=#fff2cc;strokeColor=#d6b656;" vertex="1" parent="1">
          <mxGeometry x="510" y="390" width="20" height="20" as="geometry" />
        </mxCell>
        <mxCell id="DiYAFlhnTvCMc2Pwmvz9-40" value="" style="edgeStyle=orthogonalEdgeStyle;rounded=0;orthogonalLoop=1;jettySize=auto;html=1;endArrow=none;endFill=0;fillColor=#fff2cc;strokeColor=#d6b656;" edge="1" parent="1" source="DiYAFlhnTvCMc2Pwmvz9-37" target="DiYAFlhnTvCMc2Pwmvz9-39">
          <mxGeometry relative="1" as="geometry" />
        </mxCell>
        <mxCell id="DiYAFlhnTvCMc2Pwmvz9-87" style="edgeStyle=orthogonalEdgeStyle;rounded=0;orthogonalLoop=1;jettySize=auto;html=1;exitX=1;exitY=0.5;exitDx=0;exitDy=0;exitPerimeter=0;entryX=0;entryY=0.5;entryDx=0;entryDy=0;entryPerimeter=0;endArrow=none;endFill=0;" edge="1" parent="1" source="DiYAFlhnTvCMc2Pwmvz9-37" target="DiYAFlhnTvCMc2Pwmvz9-77">
          <mxGeometry relative="1" as="geometry" />
        </mxCell>
        <mxCell id="DiYAFlhnTvCMc2Pwmvz9-37" value="status" style="strokeWidth=2;html=1;shape=mxgraph.flowchart.start_2;whiteSpace=wrap;fillColor=#fff2cc;strokeColor=#d6b656;" vertex="1" parent="1">
          <mxGeometry x="510" y="420" width="20" height="20" as="geometry" />
        </mxCell>
        <mxCell id="DiYAFlhnTvCMc2Pwmvz9-44" value="" style="edgeStyle=orthogonalEdgeStyle;rounded=0;orthogonalLoop=1;jettySize=auto;html=1;endArrow=none;endFill=0;fillColor=#fff2cc;strokeColor=#d6b656;" edge="1" parent="1" source="DiYAFlhnTvCMc2Pwmvz9-39" target="DiYAFlhnTvCMc2Pwmvz9-43">
          <mxGeometry relative="1" as="geometry" />
        </mxCell>
        <mxCell id="DiYAFlhnTvCMc2Pwmvz9-88" style="edgeStyle=orthogonalEdgeStyle;rounded=0;orthogonalLoop=1;jettySize=auto;html=1;exitX=1;exitY=0.5;exitDx=0;exitDy=0;exitPerimeter=0;entryX=0;entryY=0.5;entryDx=0;entryDy=0;entryPerimeter=0;endArrow=none;endFill=0;" edge="1" parent="1" source="DiYAFlhnTvCMc2Pwmvz9-39" target="DiYAFlhnTvCMc2Pwmvz9-78">
          <mxGeometry relative="1" as="geometry" />
        </mxCell>
        <mxCell id="DiYAFlhnTvCMc2Pwmvz9-39" value="published" style="strokeWidth=2;html=1;shape=mxgraph.flowchart.start_2;whiteSpace=wrap;fillColor=#fff2cc;strokeColor=#d6b656;" vertex="1" parent="1">
          <mxGeometry x="510" y="450" width="20" height="20" as="geometry" />
        </mxCell>
        <mxCell id="DiYAFlhnTvCMc2Pwmvz9-89" style="edgeStyle=orthogonalEdgeStyle;rounded=0;orthogonalLoop=1;jettySize=auto;html=1;exitX=1;exitY=0.5;exitDx=0;exitDy=0;exitPerimeter=0;entryX=0;entryY=0.5;entryDx=0;entryDy=0;entryPerimeter=0;endArrow=none;endFill=0;" edge="1" parent="1" source="DiYAFlhnTvCMc2Pwmvz9-43" target="DiYAFlhnTvCMc2Pwmvz9-79">
          <mxGeometry relative="1" as="geometry" />
        </mxCell>
        <mxCell id="DiYAFlhnTvCMc2Pwmvz9-43" value="order" style="strokeWidth=2;html=1;shape=mxgraph.flowchart.start_2;whiteSpace=wrap;fillColor=#fff2cc;strokeColor=#d6b656;" vertex="1" parent="1">
          <mxGeometry x="510" y="480" width="20" height="20" as="geometry" />
        </mxCell>
        <mxCell id="DiYAFlhnTvCMc2Pwmvz9-45" value="" style="edgeStyle=orthogonalEdgeStyle;rounded=0;orthogonalLoop=1;jettySize=auto;html=1;endArrow=none;endFill=0;fillColor=#fff2cc;strokeColor=#d6b656;" edge="1" parent="1" source="DiYAFlhnTvCMc2Pwmvz9-46" target="DiYAFlhnTvCMc2Pwmvz9-48">
          <mxGeometry relative="1" as="geometry" />
        </mxCell>
        <mxCell id="DiYAFlhnTvCMc2Pwmvz9-97" style="edgeStyle=orthogonalEdgeStyle;rounded=0;orthogonalLoop=1;jettySize=auto;html=1;exitX=1;exitY=0.5;exitDx=0;exitDy=0;exitPerimeter=0;entryX=0;entryY=0.5;entryDx=0;entryDy=0;entryPerimeter=0;endArrow=none;endFill=0;" edge="1" parent="1" source="DiYAFlhnTvCMc2Pwmvz9-46" target="DiYAFlhnTvCMc2Pwmvz9-90">
          <mxGeometry relative="1" as="geometry" />
        </mxCell>
        <mxCell id="DiYAFlhnTvCMc2Pwmvz9-46" value="id" style="strokeWidth=2;html=1;shape=mxgraph.flowchart.start_2;whiteSpace=wrap;fillColor=#fff2cc;strokeColor=#d6b656;" vertex="1" parent="1">
          <mxGeometry x="510" y="530" width="20" height="20" as="geometry" />
        </mxCell>
        <mxCell id="DiYAFlhnTvCMc2Pwmvz9-47" value="" style="edgeStyle=orthogonalEdgeStyle;rounded=0;orthogonalLoop=1;jettySize=auto;html=1;endArrow=none;endFill=0;fillColor=#fff2cc;strokeColor=#d6b656;" edge="1" parent="1" source="DiYAFlhnTvCMc2Pwmvz9-48" target="DiYAFlhnTvCMc2Pwmvz9-50">
          <mxGeometry relative="1" as="geometry" />
        </mxCell>
        <mxCell id="DiYAFlhnTvCMc2Pwmvz9-98" style="edgeStyle=orthogonalEdgeStyle;rounded=0;orthogonalLoop=1;jettySize=auto;html=1;exitX=1;exitY=0.5;exitDx=0;exitDy=0;exitPerimeter=0;entryX=0;entryY=0.5;entryDx=0;entryDy=0;entryPerimeter=0;endArrow=none;endFill=0;" edge="1" parent="1" source="DiYAFlhnTvCMc2Pwmvz9-48" target="DiYAFlhnTvCMc2Pwmvz9-91">
          <mxGeometry relative="1" as="geometry" />
        </mxCell>
        <mxCell id="DiYAFlhnTvCMc2Pwmvz9-48" value="name" style="strokeWidth=2;html=1;shape=mxgraph.flowchart.start_2;whiteSpace=wrap;fillColor=#fff2cc;strokeColor=#d6b656;" vertex="1" parent="1">
          <mxGeometry x="510" y="560" width="20" height="20" as="geometry" />
        </mxCell>
        <mxCell id="DiYAFlhnTvCMc2Pwmvz9-49" value="" style="edgeStyle=orthogonalEdgeStyle;rounded=0;orthogonalLoop=1;jettySize=auto;html=1;endArrow=none;endFill=0;fillColor=#fff2cc;strokeColor=#d6b656;" edge="1" parent="1" source="DiYAFlhnTvCMc2Pwmvz9-50" target="DiYAFlhnTvCMc2Pwmvz9-52">
          <mxGeometry relative="1" as="geometry" />
        </mxCell>
        <mxCell id="DiYAFlhnTvCMc2Pwmvz9-99" style="edgeStyle=orthogonalEdgeStyle;rounded=0;orthogonalLoop=1;jettySize=auto;html=1;exitX=1;exitY=0.5;exitDx=0;exitDy=0;exitPerimeter=0;entryX=0;entryY=0.5;entryDx=0;entryDy=0;entryPerimeter=0;endArrow=none;endFill=0;" edge="1" parent="1" source="DiYAFlhnTvCMc2Pwmvz9-50" target="DiYAFlhnTvCMc2Pwmvz9-92">
          <mxGeometry relative="1" as="geometry" />
        </mxCell>
        <mxCell id="DiYAFlhnTvCMc2Pwmvz9-50" value="category_id" style="strokeWidth=2;html=1;shape=mxgraph.flowchart.start_2;whiteSpace=wrap;fillColor=#fff2cc;strokeColor=#d6b656;" vertex="1" parent="1">
          <mxGeometry x="510" y="590" width="20" height="20" as="geometry" />
        </mxCell>
        <mxCell id="DiYAFlhnTvCMc2Pwmvz9-51" value="" style="edgeStyle=orthogonalEdgeStyle;rounded=0;orthogonalLoop=1;jettySize=auto;html=1;endArrow=none;endFill=0;fillColor=#fff2cc;strokeColor=#d6b656;" edge="1" parent="1" source="DiYAFlhnTvCMc2Pwmvz9-52" target="DiYAFlhnTvCMc2Pwmvz9-54">
          <mxGeometry relative="1" as="geometry" />
        </mxCell>
        <mxCell id="DiYAFlhnTvCMc2Pwmvz9-100" style="edgeStyle=orthogonalEdgeStyle;rounded=0;orthogonalLoop=1;jettySize=auto;html=1;exitX=1;exitY=0.5;exitDx=0;exitDy=0;exitPerimeter=0;entryX=0;entryY=0.5;entryDx=0;entryDy=0;entryPerimeter=0;endArrow=none;endFill=0;" edge="1" parent="1" source="DiYAFlhnTvCMc2Pwmvz9-52" target="DiYAFlhnTvCMc2Pwmvz9-93">
          <mxGeometry relative="1" as="geometry" />
        </mxCell>
        <mxCell id="DiYAFlhnTvCMc2Pwmvz9-52" value="is_parent" style="strokeWidth=2;html=1;shape=mxgraph.flowchart.start_2;whiteSpace=wrap;fillColor=#fff2cc;strokeColor=#d6b656;" vertex="1" parent="1">
          <mxGeometry x="510" y="620" width="20" height="20" as="geometry" />
        </mxCell>
        <mxCell id="DiYAFlhnTvCMc2Pwmvz9-53" value="" style="edgeStyle=orthogonalEdgeStyle;rounded=0;orthogonalLoop=1;jettySize=auto;html=1;endArrow=none;endFill=0;fillColor=#fff2cc;strokeColor=#d6b656;" edge="1" parent="1" source="DiYAFlhnTvCMc2Pwmvz9-54" target="DiYAFlhnTvCMc2Pwmvz9-56">
          <mxGeometry relative="1" as="geometry" />
        </mxCell>
        <mxCell id="DiYAFlhnTvCMc2Pwmvz9-101" style="edgeStyle=orthogonalEdgeStyle;rounded=0;orthogonalLoop=1;jettySize=auto;html=1;exitX=1;exitY=0.5;exitDx=0;exitDy=0;exitPerimeter=0;entryX=0;entryY=0.5;entryDx=0;entryDy=0;entryPerimeter=0;endArrow=none;endFill=0;" edge="1" parent="1" source="DiYAFlhnTvCMc2Pwmvz9-54" target="DiYAFlhnTvCMc2Pwmvz9-94">
          <mxGeometry relative="1" as="geometry" />
        </mxCell>
        <mxCell id="DiYAFlhnTvCMc2Pwmvz9-54" value="status" style="strokeWidth=2;html=1;shape=mxgraph.flowchart.start_2;whiteSpace=wrap;fillColor=#fff2cc;strokeColor=#d6b656;" vertex="1" parent="1">
          <mxGeometry x="510" y="650" width="20" height="20" as="geometry" />
        </mxCell>
        <mxCell id="DiYAFlhnTvCMc2Pwmvz9-55" value="" style="edgeStyle=orthogonalEdgeStyle;rounded=0;orthogonalLoop=1;jettySize=auto;html=1;endArrow=none;endFill=0;fillColor=#fff2cc;strokeColor=#d6b656;" edge="1" parent="1" source="DiYAFlhnTvCMc2Pwmvz9-56" target="DiYAFlhnTvCMc2Pwmvz9-57">
          <mxGeometry relative="1" as="geometry" />
        </mxCell>
        <mxCell id="DiYAFlhnTvCMc2Pwmvz9-102" style="edgeStyle=orthogonalEdgeStyle;rounded=0;orthogonalLoop=1;jettySize=auto;html=1;exitX=1;exitY=0.5;exitDx=0;exitDy=0;exitPerimeter=0;entryX=0;entryY=0.5;entryDx=0;entryDy=0;entryPerimeter=0;endArrow=none;endFill=0;" edge="1" parent="1" source="DiYAFlhnTvCMc2Pwmvz9-56" target="DiYAFlhnTvCMc2Pwmvz9-95">
          <mxGeometry relative="1" as="geometry" />
        </mxCell>
        <mxCell id="DiYAFlhnTvCMc2Pwmvz9-56" value="published" style="strokeWidth=2;html=1;shape=mxgraph.flowchart.start_2;whiteSpace=wrap;fillColor=#fff2cc;strokeColor=#d6b656;" vertex="1" parent="1">
          <mxGeometry x="510" y="680" width="20" height="20" as="geometry" />
        </mxCell>
        <mxCell id="DiYAFlhnTvCMc2Pwmvz9-103" style="edgeStyle=orthogonalEdgeStyle;rounded=0;orthogonalLoop=1;jettySize=auto;html=1;exitX=1;exitY=0.5;exitDx=0;exitDy=0;exitPerimeter=0;entryX=0;entryY=0.5;entryDx=0;entryDy=0;entryPerimeter=0;endArrow=none;endFill=0;" edge="1" parent="1" source="DiYAFlhnTvCMc2Pwmvz9-57" target="DiYAFlhnTvCMc2Pwmvz9-96">
          <mxGeometry relative="1" as="geometry" />
        </mxCell>
        <mxCell id="DiYAFlhnTvCMc2Pwmvz9-57" value="order" style="strokeWidth=2;html=1;shape=mxgraph.flowchart.start_2;whiteSpace=wrap;fillColor=#fff2cc;strokeColor=#d6b656;" vertex="1" parent="1">
          <mxGeometry x="510" y="710" width="20" height="20" as="geometry" />
        </mxCell>
        <mxCell id="DiYAFlhnTvCMc2Pwmvz9-63" value="" style="edgeStyle=orthogonalEdgeStyle;rounded=0;orthogonalLoop=1;jettySize=auto;html=1;endArrow=none;endFill=0;" edge="1" parent="1" source="DiYAFlhnTvCMc2Pwmvz9-59" target="DiYAFlhnTvCMc2Pwmvz9-2">
          <mxGeometry relative="1" as="geometry" />
        </mxCell>
        <mxCell id="DiYAFlhnTvCMc2Pwmvz9-59" value="GET" style="strokeWidth=2;html=1;shape=mxgraph.flowchart.start_2;whiteSpace=wrap;fillColor=#ffe6cc;strokeColor=#d79b00;" vertex="1" parent="1">
          <mxGeometry x="300" y="210" width="20" height="20" as="geometry" />
        </mxCell>
        <mxCell id="DiYAFlhnTvCMc2Pwmvz9-68" value="int" style="strokeWidth=2;html=1;shape=mxgraph.flowchart.start_2;whiteSpace=wrap;" vertex="1" parent="1">
          <mxGeometry x="570" y="300" width="20" height="20" as="geometry" />
        </mxCell>
        <mxCell id="DiYAFlhnTvCMc2Pwmvz9-74" value="string" style="strokeWidth=2;html=1;shape=mxgraph.flowchart.start_2;whiteSpace=wrap;" vertex="1" parent="1">
          <mxGeometry x="570" y="330" width="20" height="20" as="geometry" />
        </mxCell>
        <mxCell id="DiYAFlhnTvCMc2Pwmvz9-75" value="int" style="strokeWidth=2;html=1;shape=mxgraph.flowchart.start_2;whiteSpace=wrap;" vertex="1" parent="1">
          <mxGeometry x="570" y="360" width="20" height="20" as="geometry" />
        </mxCell>
        <mxCell id="DiYAFlhnTvCMc2Pwmvz9-76" value="bool" style="strokeWidth=2;html=1;shape=mxgraph.flowchart.start_2;whiteSpace=wrap;" vertex="1" parent="1">
          <mxGeometry x="570" y="390" width="20" height="20" as="geometry" />
        </mxCell>
        <mxCell id="DiYAFlhnTvCMc2Pwmvz9-77" value="string" style="strokeWidth=2;html=1;shape=mxgraph.flowchart.start_2;whiteSpace=wrap;" vertex="1" parent="1">
          <mxGeometry x="570" y="420" width="20" height="20" as="geometry" />
        </mxCell>
        <mxCell id="DiYAFlhnTvCMc2Pwmvz9-78" value="bool" style="strokeWidth=2;html=1;shape=mxgraph.flowchart.start_2;whiteSpace=wrap;" vertex="1" parent="1">
          <mxGeometry x="570" y="450" width="20" height="20" as="geometry" />
        </mxCell>
        <mxCell id="DiYAFlhnTvCMc2Pwmvz9-79" value="int" style="strokeWidth=2;html=1;shape=mxgraph.flowchart.start_2;whiteSpace=wrap;" vertex="1" parent="1">
          <mxGeometry x="570" y="480" width="20" height="20" as="geometry" />
        </mxCell>
        <mxCell id="DiYAFlhnTvCMc2Pwmvz9-90" value="int" style="strokeWidth=2;html=1;shape=mxgraph.flowchart.start_2;whiteSpace=wrap;" vertex="1" parent="1">
          <mxGeometry x="570" y="530" width="20" height="20" as="geometry" />
        </mxCell>
        <mxCell id="DiYAFlhnTvCMc2Pwmvz9-91" value="string" style="strokeWidth=2;html=1;shape=mxgraph.flowchart.start_2;whiteSpace=wrap;" vertex="1" parent="1">
          <mxGeometry x="570" y="560" width="20" height="20" as="geometry" />
        </mxCell>
        <mxCell id="DiYAFlhnTvCMc2Pwmvz9-92" value="int" style="strokeWidth=2;html=1;shape=mxgraph.flowchart.start_2;whiteSpace=wrap;" vertex="1" parent="1">
          <mxGeometry x="570" y="590" width="20" height="20" as="geometry" />
        </mxCell>
        <mxCell id="DiYAFlhnTvCMc2Pwmvz9-93" value="bool" style="strokeWidth=2;html=1;shape=mxgraph.flowchart.start_2;whiteSpace=wrap;" vertex="1" parent="1">
          <mxGeometry x="570" y="620" width="20" height="20" as="geometry" />
        </mxCell>
        <mxCell id="DiYAFlhnTvCMc2Pwmvz9-94" value="string" style="strokeWidth=2;html=1;shape=mxgraph.flowchart.start_2;whiteSpace=wrap;" vertex="1" parent="1">
          <mxGeometry x="570" y="650" width="20" height="20" as="geometry" />
        </mxCell>
        <mxCell id="DiYAFlhnTvCMc2Pwmvz9-95" value="bool" style="strokeWidth=2;html=1;shape=mxgraph.flowchart.start_2;whiteSpace=wrap;" vertex="1" parent="1">
          <mxGeometry x="570" y="680" width="20" height="20" as="geometry" />
        </mxCell>
        <mxCell id="DiYAFlhnTvCMc2Pwmvz9-96" value="int" style="strokeWidth=2;html=1;shape=mxgraph.flowchart.start_2;whiteSpace=wrap;" vertex="1" parent="1">
          <mxGeometry x="570" y="710" width="20" height="20" as="geometry" />
        </mxCell>
        <mxCell id="DiYAFlhnTvCMc2Pwmvz9-109" value="" style="edgeStyle=orthogonalEdgeStyle;rounded=0;orthogonalLoop=1;jettySize=auto;html=1;endArrow=none;endFill=0;" edge="1" parent="1" source="DiYAFlhnTvCMc2Pwmvz9-104" target="DiYAFlhnTvCMc2Pwmvz9-108">
          <mxGeometry relative="1" as="geometry" />
        </mxCell>
        <mxCell id="DiYAFlhnTvCMc2Pwmvz9-104" value="/{id}" style="strokeWidth=2;html=1;shape=mxgraph.flowchart.start_2;whiteSpace=wrap;fillColor=#ffe6cc;strokeColor=#d79b00;" vertex="1" parent="1">
          <mxGeometry x="230" y="810" width="20" height="20" as="geometry" />
        </mxCell>
        <mxCell id="DiYAFlhnTvCMc2Pwmvz9-180" value="" style="edgeStyle=orthogonalEdgeStyle;rounded=0;orthogonalLoop=1;jettySize=auto;html=1;endArrow=none;endFill=0;" edge="1" parent="1" source="DiYAFlhnTvCMc2Pwmvz9-108" target="DiYAFlhnTvCMc2Pwmvz9-179">
          <mxGeometry relative="1" as="geometry" />
        </mxCell>
        <mxCell id="DiYAFlhnTvCMc2Pwmvz9-181" style="edgeStyle=orthogonalEdgeStyle;rounded=0;orthogonalLoop=1;jettySize=auto;html=1;exitX=0.5;exitY=1;exitDx=0;exitDy=0;exitPerimeter=0;entryX=0;entryY=0.5;entryDx=0;entryDy=0;entryPerimeter=0;endArrow=none;endFill=0;" edge="1" parent="1" source="DiYAFlhnTvCMc2Pwmvz9-108" target="DiYAFlhnTvCMc2Pwmvz9-111">
          <mxGeometry relative="1" as="geometry" />
        </mxCell>
        <mxCell id="DiYAFlhnTvCMc2Pwmvz9-108" value="GET" style="strokeWidth=2;html=1;shape=mxgraph.flowchart.start_2;whiteSpace=wrap;fillColor=#ffe6cc;strokeColor=#d79b00;" vertex="1" parent="1">
          <mxGeometry x="300" y="810" width="20" height="20" as="geometry" />
        </mxCell>
        <mxCell id="DiYAFlhnTvCMc2Pwmvz9-110" value="" style="edgeStyle=orthogonalEdgeStyle;rounded=0;orthogonalLoop=1;jettySize=auto;html=1;endArrow=none;endFill=0;" edge="1" parent="1" source="DiYAFlhnTvCMc2Pwmvz9-111" target="DiYAFlhnTvCMc2Pwmvz9-116">
          <mxGeometry relative="1" as="geometry" />
        </mxCell>
        <mxCell id="DiYAFlhnTvCMc2Pwmvz9-111" value="response" style="strokeWidth=2;html=1;shape=mxgraph.flowchart.start_2;whiteSpace=wrap;fillColor=#dae8fc;strokeColor=#6c8ebf;" vertex="1" parent="1">
          <mxGeometry x="390" y="860" width="20" height="20" as="geometry" />
        </mxCell>
        <mxCell id="DiYAFlhnTvCMc2Pwmvz9-112" value="" style="edgeStyle=orthogonalEdgeStyle;rounded=0;orthogonalLoop=1;jettySize=auto;html=1;endArrow=none;endFill=0;" edge="1" parent="1" source="DiYAFlhnTvCMc2Pwmvz9-113" target="DiYAFlhnTvCMc2Pwmvz9-117">
          <mxGeometry relative="1" as="geometry" />
        </mxCell>
        <mxCell id="DiYAFlhnTvCMc2Pwmvz9-113" value="404" style="strokeWidth=2;html=1;shape=mxgraph.flowchart.start_2;whiteSpace=wrap;fillColor=#dae8fc;strokeColor=#6c8ebf;" vertex="1" parent="1">
          <mxGeometry x="390" y="960" width="20" height="20" as="geometry" />
        </mxCell>
        <mxCell id="DiYAFlhnTvCMc2Pwmvz9-114" value="" style="edgeStyle=orthogonalEdgeStyle;rounded=0;orthogonalLoop=1;jettySize=auto;html=1;endArrow=none;endFill=0;" edge="1" parent="1" source="DiYAFlhnTvCMc2Pwmvz9-116" target="DiYAFlhnTvCMc2Pwmvz9-113">
          <mxGeometry relative="1" as="geometry" />
        </mxCell>
        <mxCell id="DiYAFlhnTvCMc2Pwmvz9-115" value="" style="edgeStyle=orthogonalEdgeStyle;rounded=0;orthogonalLoop=1;jettySize=auto;html=1;endArrow=none;endFill=0;" edge="1" parent="1" source="DiYAFlhnTvCMc2Pwmvz9-116">
          <mxGeometry relative="1" as="geometry">
            <mxPoint x="470" y="920" as="targetPoint" />
          </mxGeometry>
        </mxCell>
        <mxCell id="DiYAFlhnTvCMc2Pwmvz9-116" value="200" style="strokeWidth=2;html=1;shape=mxgraph.flowchart.start_2;whiteSpace=wrap;fillColor=#d5e8d4;strokeColor=#82b366;" vertex="1" parent="1">
          <mxGeometry x="390" y="910" width="20" height="20" as="geometry" />
        </mxCell>
        <mxCell id="DiYAFlhnTvCMc2Pwmvz9-117" value="500" style="strokeWidth=2;html=1;shape=mxgraph.flowchart.start_2;whiteSpace=wrap;fillColor=#f8cecc;strokeColor=#b85450;" vertex="1" parent="1">
          <mxGeometry x="390" y="1010" width="20" height="20" as="geometry" />
        </mxCell>
        <mxCell id="DiYAFlhnTvCMc2Pwmvz9-121" value="" style="edgeStyle=orthogonalEdgeStyle;rounded=0;orthogonalLoop=1;jettySize=auto;html=1;endArrow=none;endFill=0;" edge="1" parent="1" source="DiYAFlhnTvCMc2Pwmvz9-122" target="DiYAFlhnTvCMc2Pwmvz9-127">
          <mxGeometry relative="1" as="geometry" />
        </mxCell>
        <mxCell id="DiYAFlhnTvCMc2Pwmvz9-122" value="category" style="strokeWidth=2;html=1;shape=mxgraph.flowchart.start_2;whiteSpace=wrap;fillColor=#b0e3e6;strokeColor=#0e8088;" vertex="1" parent="1">
          <mxGeometry x="470" y="910" width="20" height="20" as="geometry" />
        </mxCell>
        <mxCell id="DiYAFlhnTvCMc2Pwmvz9-125" value="" style="edgeStyle=orthogonalEdgeStyle;rounded=0;orthogonalLoop=1;jettySize=auto;html=1;endArrow=none;endFill=0;fillColor=#fff2cc;strokeColor=#d6b656;" edge="1" parent="1" source="DiYAFlhnTvCMc2Pwmvz9-127" target="DiYAFlhnTvCMc2Pwmvz9-130">
          <mxGeometry relative="1" as="geometry" />
        </mxCell>
        <mxCell id="DiYAFlhnTvCMc2Pwmvz9-126" value="" style="edgeStyle=orthogonalEdgeStyle;rounded=0;orthogonalLoop=1;jettySize=auto;html=1;endArrow=none;endFill=0;" edge="1" parent="1" source="DiYAFlhnTvCMc2Pwmvz9-127" target="DiYAFlhnTvCMc2Pwmvz9-165">
          <mxGeometry relative="1" as="geometry" />
        </mxCell>
        <mxCell id="DiYAFlhnTvCMc2Pwmvz9-127" value="id" style="strokeWidth=2;html=1;shape=mxgraph.flowchart.start_2;whiteSpace=wrap;fillColor=#fff2cc;strokeColor=#d6b656;" vertex="1" parent="1">
          <mxGeometry x="510" y="910" width="20" height="20" as="geometry" />
        </mxCell>
        <mxCell id="DiYAFlhnTvCMc2Pwmvz9-128" value="" style="edgeStyle=orthogonalEdgeStyle;rounded=0;orthogonalLoop=1;jettySize=auto;html=1;endArrow=none;endFill=0;fillColor=#fff2cc;strokeColor=#d6b656;" edge="1" parent="1" source="DiYAFlhnTvCMc2Pwmvz9-130" target="DiYAFlhnTvCMc2Pwmvz9-133">
          <mxGeometry relative="1" as="geometry" />
        </mxCell>
        <mxCell id="DiYAFlhnTvCMc2Pwmvz9-129" style="edgeStyle=orthogonalEdgeStyle;rounded=0;orthogonalLoop=1;jettySize=auto;html=1;exitX=1;exitY=0.5;exitDx=0;exitDy=0;exitPerimeter=0;entryX=0;entryY=0.5;entryDx=0;entryDy=0;entryPerimeter=0;endArrow=none;endFill=0;" edge="1" parent="1" source="DiYAFlhnTvCMc2Pwmvz9-130" target="DiYAFlhnTvCMc2Pwmvz9-166">
          <mxGeometry relative="1" as="geometry" />
        </mxCell>
        <mxCell id="DiYAFlhnTvCMc2Pwmvz9-130" value="name" style="strokeWidth=2;html=1;shape=mxgraph.flowchart.start_2;whiteSpace=wrap;fillColor=#fff2cc;strokeColor=#d6b656;" vertex="1" parent="1">
          <mxGeometry x="510" y="940" width="20" height="20" as="geometry" />
        </mxCell>
        <mxCell id="DiYAFlhnTvCMc2Pwmvz9-131" value="" style="edgeStyle=orthogonalEdgeStyle;rounded=0;orthogonalLoop=1;jettySize=auto;html=1;endArrow=none;endFill=0;fillColor=#fff2cc;strokeColor=#d6b656;" edge="1" parent="1" source="DiYAFlhnTvCMc2Pwmvz9-133" target="DiYAFlhnTvCMc2Pwmvz9-136">
          <mxGeometry relative="1" as="geometry" />
        </mxCell>
        <mxCell id="DiYAFlhnTvCMc2Pwmvz9-132" style="edgeStyle=orthogonalEdgeStyle;rounded=0;orthogonalLoop=1;jettySize=auto;html=1;exitX=1;exitY=0.5;exitDx=0;exitDy=0;exitPerimeter=0;entryX=0;entryY=0.5;entryDx=0;entryDy=0;entryPerimeter=0;endArrow=none;endFill=0;" edge="1" parent="1" source="DiYAFlhnTvCMc2Pwmvz9-133" target="DiYAFlhnTvCMc2Pwmvz9-167">
          <mxGeometry relative="1" as="geometry" />
        </mxCell>
        <mxCell id="DiYAFlhnTvCMc2Pwmvz9-133" value="category_id" style="strokeWidth=2;html=1;shape=mxgraph.flowchart.start_2;whiteSpace=wrap;fillColor=#fff2cc;strokeColor=#d6b656;" vertex="1" parent="1">
          <mxGeometry x="510" y="970" width="20" height="20" as="geometry" />
        </mxCell>
        <mxCell id="DiYAFlhnTvCMc2Pwmvz9-134" value="" style="edgeStyle=orthogonalEdgeStyle;rounded=0;orthogonalLoop=1;jettySize=auto;html=1;endArrow=none;endFill=0;fillColor=#fff2cc;strokeColor=#d6b656;" edge="1" parent="1" source="DiYAFlhnTvCMc2Pwmvz9-136" target="DiYAFlhnTvCMc2Pwmvz9-139">
          <mxGeometry relative="1" as="geometry" />
        </mxCell>
        <mxCell id="DiYAFlhnTvCMc2Pwmvz9-135" style="edgeStyle=orthogonalEdgeStyle;rounded=0;orthogonalLoop=1;jettySize=auto;html=1;exitX=1;exitY=0.5;exitDx=0;exitDy=0;exitPerimeter=0;entryX=0;entryY=0.5;entryDx=0;entryDy=0;entryPerimeter=0;endArrow=none;endFill=0;" edge="1" parent="1" source="DiYAFlhnTvCMc2Pwmvz9-136" target="DiYAFlhnTvCMc2Pwmvz9-168">
          <mxGeometry relative="1" as="geometry" />
        </mxCell>
        <mxCell id="DiYAFlhnTvCMc2Pwmvz9-136" value="is_parent" style="strokeWidth=2;html=1;shape=mxgraph.flowchart.start_2;whiteSpace=wrap;fillColor=#fff2cc;strokeColor=#d6b656;" vertex="1" parent="1">
          <mxGeometry x="510" y="1000" width="20" height="20" as="geometry" />
        </mxCell>
        <mxCell id="DiYAFlhnTvCMc2Pwmvz9-137" value="" style="edgeStyle=orthogonalEdgeStyle;rounded=0;orthogonalLoop=1;jettySize=auto;html=1;endArrow=none;endFill=0;fillColor=#fff2cc;strokeColor=#d6b656;" edge="1" parent="1" source="DiYAFlhnTvCMc2Pwmvz9-139" target="DiYAFlhnTvCMc2Pwmvz9-142">
          <mxGeometry relative="1" as="geometry" />
        </mxCell>
        <mxCell id="DiYAFlhnTvCMc2Pwmvz9-138" style="edgeStyle=orthogonalEdgeStyle;rounded=0;orthogonalLoop=1;jettySize=auto;html=1;exitX=1;exitY=0.5;exitDx=0;exitDy=0;exitPerimeter=0;entryX=0;entryY=0.5;entryDx=0;entryDy=0;entryPerimeter=0;endArrow=none;endFill=0;" edge="1" parent="1" source="DiYAFlhnTvCMc2Pwmvz9-139" target="DiYAFlhnTvCMc2Pwmvz9-169">
          <mxGeometry relative="1" as="geometry" />
        </mxCell>
        <mxCell id="DiYAFlhnTvCMc2Pwmvz9-139" value="status" style="strokeWidth=2;html=1;shape=mxgraph.flowchart.start_2;whiteSpace=wrap;fillColor=#fff2cc;strokeColor=#d6b656;" vertex="1" parent="1">
          <mxGeometry x="510" y="1030" width="20" height="20" as="geometry" />
        </mxCell>
        <mxCell id="DiYAFlhnTvCMc2Pwmvz9-140" value="" style="edgeStyle=orthogonalEdgeStyle;rounded=0;orthogonalLoop=1;jettySize=auto;html=1;endArrow=none;endFill=0;fillColor=#fff2cc;strokeColor=#d6b656;" edge="1" parent="1" source="DiYAFlhnTvCMc2Pwmvz9-142" target="DiYAFlhnTvCMc2Pwmvz9-144">
          <mxGeometry relative="1" as="geometry" />
        </mxCell>
        <mxCell id="DiYAFlhnTvCMc2Pwmvz9-141" style="edgeStyle=orthogonalEdgeStyle;rounded=0;orthogonalLoop=1;jettySize=auto;html=1;exitX=1;exitY=0.5;exitDx=0;exitDy=0;exitPerimeter=0;entryX=0;entryY=0.5;entryDx=0;entryDy=0;entryPerimeter=0;endArrow=none;endFill=0;" edge="1" parent="1" source="DiYAFlhnTvCMc2Pwmvz9-142" target="DiYAFlhnTvCMc2Pwmvz9-170">
          <mxGeometry relative="1" as="geometry" />
        </mxCell>
        <mxCell id="DiYAFlhnTvCMc2Pwmvz9-142" value="published" style="strokeWidth=2;html=1;shape=mxgraph.flowchart.start_2;whiteSpace=wrap;fillColor=#fff2cc;strokeColor=#d6b656;" vertex="1" parent="1">
          <mxGeometry x="510" y="1060" width="20" height="20" as="geometry" />
        </mxCell>
        <mxCell id="DiYAFlhnTvCMc2Pwmvz9-143" style="edgeStyle=orthogonalEdgeStyle;rounded=0;orthogonalLoop=1;jettySize=auto;html=1;exitX=1;exitY=0.5;exitDx=0;exitDy=0;exitPerimeter=0;entryX=0;entryY=0.5;entryDx=0;entryDy=0;entryPerimeter=0;endArrow=none;endFill=0;" edge="1" parent="1" source="DiYAFlhnTvCMc2Pwmvz9-144" target="DiYAFlhnTvCMc2Pwmvz9-171">
          <mxGeometry relative="1" as="geometry" />
        </mxCell>
        <mxCell id="DiYAFlhnTvCMc2Pwmvz9-144" value="order" style="strokeWidth=2;html=1;shape=mxgraph.flowchart.start_2;whiteSpace=wrap;fillColor=#fff2cc;strokeColor=#d6b656;" vertex="1" parent="1">
          <mxGeometry x="510" y="1090" width="20" height="20" as="geometry" />
        </mxCell>
        <mxCell id="DiYAFlhnTvCMc2Pwmvz9-165" value="int" style="strokeWidth=2;html=1;shape=mxgraph.flowchart.start_2;whiteSpace=wrap;" vertex="1" parent="1">
          <mxGeometry x="570" y="910" width="20" height="20" as="geometry" />
        </mxCell>
        <mxCell id="DiYAFlhnTvCMc2Pwmvz9-166" value="string" style="strokeWidth=2;html=1;shape=mxgraph.flowchart.start_2;whiteSpace=wrap;" vertex="1" parent="1">
          <mxGeometry x="570" y="940" width="20" height="20" as="geometry" />
        </mxCell>
        <mxCell id="DiYAFlhnTvCMc2Pwmvz9-167" value="int" style="strokeWidth=2;html=1;shape=mxgraph.flowchart.start_2;whiteSpace=wrap;" vertex="1" parent="1">
          <mxGeometry x="570" y="970" width="20" height="20" as="geometry" />
        </mxCell>
        <mxCell id="DiYAFlhnTvCMc2Pwmvz9-168" value="bool" style="strokeWidth=2;html=1;shape=mxgraph.flowchart.start_2;whiteSpace=wrap;" vertex="1" parent="1">
          <mxGeometry x="570" y="1000" width="20" height="20" as="geometry" />
        </mxCell>
        <mxCell id="DiYAFlhnTvCMc2Pwmvz9-169" value="string" style="strokeWidth=2;html=1;shape=mxgraph.flowchart.start_2;whiteSpace=wrap;" vertex="1" parent="1">
          <mxGeometry x="570" y="1030" width="20" height="20" as="geometry" />
        </mxCell>
        <mxCell id="DiYAFlhnTvCMc2Pwmvz9-170" value="bool" style="strokeWidth=2;html=1;shape=mxgraph.flowchart.start_2;whiteSpace=wrap;" vertex="1" parent="1">
          <mxGeometry x="570" y="1060" width="20" height="20" as="geometry" />
        </mxCell>
        <mxCell id="DiYAFlhnTvCMc2Pwmvz9-171" value="int" style="strokeWidth=2;html=1;shape=mxgraph.flowchart.start_2;whiteSpace=wrap;" vertex="1" parent="1">
          <mxGeometry x="570" y="1090" width="20" height="20" as="geometry" />
        </mxCell>
        <mxCell id="DiYAFlhnTvCMc2Pwmvz9-184" value="" style="edgeStyle=orthogonalEdgeStyle;rounded=0;orthogonalLoop=1;jettySize=auto;html=1;endArrow=none;endFill=0;" edge="1" parent="1" source="DiYAFlhnTvCMc2Pwmvz9-179" target="DiYAFlhnTvCMc2Pwmvz9-183">
          <mxGeometry relative="1" as="geometry" />
        </mxCell>
        <mxCell id="DiYAFlhnTvCMc2Pwmvz9-179" value="params" style="strokeWidth=2;html=1;shape=mxgraph.flowchart.start_2;whiteSpace=wrap;fillColor=#dae8fc;strokeColor=#6c8ebf;" vertex="1" parent="1">
          <mxGeometry x="390" y="810" width="20" height="20" as="geometry" />
        </mxCell>
        <mxCell id="DiYAFlhnTvCMc2Pwmvz9-186" value="" style="edgeStyle=orthogonalEdgeStyle;rounded=0;orthogonalLoop=1;jettySize=auto;html=1;endArrow=none;endFill=0;" edge="1" parent="1" source="DiYAFlhnTvCMc2Pwmvz9-183" target="DiYAFlhnTvCMc2Pwmvz9-185">
          <mxGeometry relative="1" as="geometry" />
        </mxCell>
        <mxCell id="DiYAFlhnTvCMc2Pwmvz9-183" value="id" style="strokeWidth=2;html=1;shape=mxgraph.flowchart.start_2;whiteSpace=wrap;fillColor=#fff2cc;strokeColor=#d6b656;" vertex="1" parent="1">
          <mxGeometry x="470" y="810" width="20" height="20" as="geometry" />
        </mxCell>
        <mxCell id="DiYAFlhnTvCMc2Pwmvz9-185" value="int" style="strokeWidth=2;html=1;shape=mxgraph.flowchart.start_2;whiteSpace=wrap;" vertex="1" parent="1">
          <mxGeometry x="510" y="810" width="20" height="20" as="geometry" />
        </mxCell>
      </root>
    </mxGraphModel>
  </diagram>
</mxfile>
